<?xml version="1.0" standalone="no"?>
<!DOCTYPE svg PUBLIC "-//W3C//DTD SVG 20010904//EN"
 "http://www.w3.org/TR/2001/REC-SVG-20010904/DTD/svg10.dtd">
<svg version="1.0" xmlns="http://www.w3.org/2000/svg"
 width="76.000000pt" height="68.000000pt" viewBox="0 0 76.000000 68.000000"
 preserveAspectRatio="xMidYMid meet">

<g transform="translate(0.000000,68.000000) scale(0.100000,-0.100000)"
fill="#000000" stroke="none">
<path d="M264 560 c-141 -56 -201 -197 -136 -321 50 -96 149 -145 277 -137 70
5 161 39 150 57 -2 5 -24 -1 -47 -12 -59 -29 -160 -34 -229 -12 -63 21 -131
85 -149 140 -19 56 -8 129 26 178 44 63 136 107 223 106 77 -1 113 -12 174
-55 53 -38 87 -102 87 -166 0 -55 -21 -78 -72 -78 -53 0 -68 23 -68 108 0 41
-4 72 -10 72 -5 0 -10 -5 -10 -11 0 -6 -12 -1 -26 10 -35 28 -107 28 -152 1
-109 -67 -53 -220 80 -220 41 0 54 5 78 28 27 27 28 28 50 10 33 -27 95 -24
125 7 20 19 25 34 25 72 -1 87 -56 170 -144 215 -60 31 -183 35 -252 8z m173
-135 c32 -23 47 -77 33 -120 -15 -46 -44 -65 -98 -65 -35 0 -49 6 -72 29 -40
39 -47 73 -23 113 11 18 30 39 44 45 33 17 90 16 116 -2z"/>
</g>
</svg>
