<?xml version="1.0" standalone="no"?>
<!DOCTYPE svg PUBLIC "-//W3C//DTD SVG 20010904//EN"
 "http://www.w3.org/TR/2001/REC-SVG-20010904/DTD/svg10.dtd">
<svg version="1.0" xmlns="http://www.w3.org/2000/svg"
 width="54.000000pt" height="52.000000pt" viewBox="0 0 54.000000 52.000000"
 preserveAspectRatio="xMidYMid meet">

<g transform="translate(0.000000,52.000000) scale(0.100000,-0.100000)"
fill="#000000" stroke="none">
<path d="M291 473 c-47 -24 -72 -62 -78 -117 -5 -43 -8 -46 -34 -46 -28 0 -29
-2 -29 -50 0 -49 1 -50 30 -50 l29 0 3 -87 3 -88 55 0 55 0 3 88 3 87 29 0
c34 0 37 4 46 58 l7 42 -42 0 c-40 0 -41 1 -41 34 0 34 1 35 43 38 l42 3 0 50
0 50 -45 3 c-28 1 -58 -4 -79 -15z m99 -38 c0 -33 -2 -35 -35 -35 -40 0 -58
-24 -53 -73 3 -30 6 -32 46 -35 34 -3 42 -7 38 -18 -3 -9 -6 -22 -6 -29 0 -9
-14 -15 -37 -17 l-38 -3 -3 -87 -3 -88 -29 0 -29 0 -3 88 -3 87 -32 3 c-29 3
-33 7 -33 32 0 25 4 29 33 32 32 3 32 4 37 63 3 33 9 66 14 73 12 20 66 41
104 42 30 0 32 -2 32 -35z"/>
</g>
</svg>
