<?xml version="1.0" standalone="no"?>
<!DOCTYPE svg PUBLIC "-//W3C//DTD SVG 20010904//EN"
 "http://www.w3.org/TR/2001/REC-SVG-20010904/DTD/svg10.dtd">
<svg version="1.0" xmlns="http://www.w3.org/2000/svg"
 width="72.000000pt" height="72.000000pt" viewBox="0 0 72.000000 72.000000"
 preserveAspectRatio="xMidYMid meet">

<g transform="translate(0.000000,72.000000) scale(0.100000,-0.100000)"
fill="#000000" stroke="none">
<path d="M394 581 c-20 -12 -37 -34 -44 -55 -9 -29 -16 -36 -38 -36 -35 1
-102 31 -126 59 -11 11 -25 21 -32 21 -28 0 -35 -130 -9 -179 8 -17 33 -45 56
-63 l40 -32 -33 -12 c-18 -7 -50 -13 -70 -13 -51 -1 -48 -16 10 -38 68 -26
192 -24 253 3 89 41 148 124 157 219 3 28 12 61 22 75 20 28 35 70 25 70 -3 0
-20 -7 -37 -16 -29 -15 -34 -15 -59 0 -36 21 -77 20 -115 -3z m107 -17 c16 -8
39 -12 49 -9 24 7 26 -7 5 -25 -9 -8 -15 -30 -15 -60 0 -99 -84 -201 -188
-230 -42 -11 -125 -12 -162 0 -23 7 -24 8 -5 14 53 19 86 37 83 46 -2 5 -19
19 -38 32 -57 38 -80 82 -80 149 0 55 10 74 25 49 11 -17 83 -50 130 -59 50
-9 65 0 65 39 0 57 70 86 131 54z"/>
</g>
</svg>
